Simulation
nRows=15
nColumns=15
endheader
time  TH_x TH_y TH_z SC_y  SC_z  SC_x  AC_y  AC_z  AC_x  GH_y  GH_z  GH_yy  EL_x  PS_y
0.0  0.000000  0.000000  0.000000  -28.51228703744288  -3.2183214266686337  2.3909466747142796  59.086959300822876  5.00999793188331  -3.7203236300989757  -55.30331209126963  7.057217507213778  114.0449229472307  14.7504005978628  120.000000
0.04078947368421054  0.000000  0.000000  0.000000  -26.26641962971689  -1.5643791627679562  3.348097539819144  57.90876921314771  4.438666147370488  -3.3568622923344877  -50.942954368755  7.264351286789331  108.36974914720332  14.805618673849072  120.000000
0.08157894736842108  0.000000  0.000000  0.000000  -24.46901993182792  -0.5002100782105273  4.048715130988202  56.93872206510005  3.956544402868829  -3.275376108788155  -45.72369485127261  7.6830946122852835  101.93186013325382  14.587428063863975  120.000000
0.12236842105263163  0.000000  0.000000  0.000000  -23.087866887012026  0.17620524764666856  4.536794194405282  56.14261509196149  3.6043219722980155  -3.3576643894240923  -40.32367106104966  8.34654810018842  95.50762601210978  14.504580332656472  120.000000
0.16315789473684217  0.000000  0.000000  0.000000  -22.029455571365183  0.6221701758114387  4.8430416686633855  55.455199304221296  3.383440996796596  -3.512978486411336  -35.59147552016025  9.22269027009242  89.90437036276155  14.755558072179333  120.000000
0.2039473684210527  0.000000  0.000000  0.000000  -21.216478131855922  0.9616098093996392  4.97811077989618  54.828964999758306  3.2990235096838254  -3.6565800176697407  -32.00665904411206  10.268520152091765  85.55779332982958  15.483046688971505  120.000000
0.24473684210526325  0.000000  0.000000  0.000000  -20.580987206681765  1.289078140602987  4.936967879374953  54.209975388408154  3.3504780378269086  -3.7218641430861727  -29.664971604716577  11.42513371879208  82.46350938468123  16.772693263183097  120.000000
0.2855263157894738  0.000000  0.000000  0.000000  -20.09348984258629  1.6536076440458465  4.713613545930192  53.57604992225461  3.540179143767033  -3.6703699707091735  -28.430629776329027  12.652434821730026  80.40329918294964  18.668100604754695  120.000000
0.32631578947368434  0.000000  0.000000  0.000000  -19.738214445267122  2.0674798829154253  4.311774818840679  52.91509866573841  3.87045142663189  -3.4930560408120748  -28.121749187342864  13.929535992436097  79.13875659788486  21.176797509923865  120.000000
0.3671052631578949  0.000000  0.000000  0.000000  -19.504340607188418  2.5212335064184352  3.743146336741483  52.236543800840025  4.339490496224963  -3.1948302208635884  -28.561336025923417  15.248890181863052  78.49531898536101  24.24614341238761  120.000000
0.4078947368421054  0.000000  0.000000  0.000000  -19.372205766611167  2.9959400631772817  3.0275092541324544  51.55311688584538  4.934363975762203  -2.7838976723354634  -29.594174168974014  16.611091931628184  78.36116767442213  27.766459392211416  120.000000
0.44868421052631596  0.000000  0.000000  0.000000  -19.317366140644143  3.473788794388388  2.1908173623176737  50.88567656009503  5.632929342827542  -2.270065442280593  -31.05416120513166  18.01727106096563  78.63763204186138  31.586144220900124  120.000000
0.4894736842105265  0.000000  0.000000  0.000000  -19.319161374209397  3.9418703642903505  1.2638521596008596  50.24896208157538  6.409002997313242  -1.6625197819264936  -32.768554243959656  19.473136674264016  79.22671245829653  35.55402595068397  120.000000
0.530263157894737  0.000000  0.000000  0.000000  -19.36504383527776  4.393874185263111  0.2806430604825387  49.6526165598335  7.2393725213526325  -0.9800311720953903  -34.5705699641499  20.982285234200056  80.01185743543313  39.55493524840104  120.000000
0.5710526315789476  0.000000  0.000000  0.000000  -19.453646257265373  4.827989871529255  -0.7220884584732891  49.091869580303786  8.101873158952422  -0.2481760250270116  -36.320092118734316  22.54919635409429  80.87591415079866  43.52642263004279  120.000000
